<svg width="105" height="104" viewBox="0 0 105 104" fill="none" xmlns="http://www.w3.org/2000/svg">
<path fill-rule="evenodd" clip-rule="evenodd" d="M19.712 0.576C17.8347 0.192 15.9787 0 14.144 0C10.56 0 7.44533 0.874667 4.8 2.624C2.15467 4.33067 0.832 7.04 0.832 10.752C0.832 13.312 1.25867 15.424 2.112 17.088C2.96533 18.7093 4.032 19.9893 5.312 20.928C6.63467 21.8667 8.32 22.8267 10.368 23.808C10.6667 23.936 10.9227 24.064 11.136 24.192C11.392 24.2773 11.6053 24.3627 11.776 24.448C13.4827 25.216 14.8053 25.8773 15.744 26.432C16.6827 26.9867 17.472 27.7547 18.112 28.736C18.752 29.6747 19.072 30.8907 19.072 32.384C19.072 34.3467 18.4533 35.8613 17.216 36.928C15.9787 37.952 14.4213 38.464 12.544 38.464C9.94133 38.464 7.85067 37.632 6.272 35.968C4.736 34.304 3.62667 31.7653 2.944 28.352H0C0.426667 31.936 0.64 35.7547 0.64 39.808C2.34667 40.448 4.24533 40.9387 6.336 41.28C8.42667 41.6213 10.4533 41.792 12.416 41.792C14.7627 41.792 16.9173 41.344 18.88 40.448C20.8427 39.5093 22.4 38.1653 23.552 36.416C24.704 34.6667 25.28 32.64 25.28 30.336C25.28 27.776 24.8533 25.6853 24 24.064C23.1467 22.4 22.0587 21.0987 20.736 20.16C19.456 19.2213 17.792 18.2827 15.744 17.344L14.272 16.704C12.608 15.936 11.3067 15.2747 10.368 14.72C9.42933 14.1653 8.64 13.4187 8 12.48C7.40267 11.4987 7.104 10.2827 7.104 8.832C7.104 7.04 7.70133 5.67466 8.896 4.736C10.1333 3.79733 11.7973 3.328 13.888 3.328C16.064 3.328 17.8347 4.16 19.2 5.824C20.5653 7.44533 21.248 9.536 21.248 12.096H23.936C23.936 7.91466 24.1493 4.608 24.576 2.176C23.2533 1.49333 21.632 0.96 19.712 0.576ZM61.2175 37.504C60.5348 36.9493 60.1082 36.352 59.9375 35.712L48.9935 0.639999H41.8255L31.3295 35.712C31.0735 36.352 30.5828 36.9493 29.8575 37.504C29.1748 38.016 28.4282 38.272 27.6175 38.272V41.024C29.7082 40.8107 31.5855 40.704 33.2495 40.704C35.0415 40.704 37.1322 40.8107 39.5215 41.024V38.272C37.9002 38.2293 36.7908 38.0587 36.1935 37.76C35.5962 37.4187 35.2975 36.928 35.2975 36.288C35.2975 35.8187 35.4468 35.136 35.7455 34.24L37.2815 29.12H50.0815L51.5535 34.24C51.7668 34.88 51.8735 35.4133 51.8735 35.84C51.8735 36.608 51.5322 37.2053 50.8495 37.632C50.2095 38.016 49.0575 38.2293 47.3935 38.272V41.024C51.2335 40.768 53.9428 40.64 55.5215 40.64C57.0575 40.64 59.7455 40.768 63.5855 41.024V38.272C62.7322 38.272 61.9428 38.016 61.2175 37.504ZM43.8735 7.68L49.1855 26.048H38.1775L43.6175 7.68H43.8735ZM67.7002 66.2301C68.4255 65.7181 69.2149 65.4621 70.0682 65.4621V62.6461C67.8069 62.8168 65.9295 62.9021 64.4362 62.9021C62.9429 62.9021 60.8095 62.8168 58.0362 62.6461V65.4621C59.6149 65.5048 60.7029 65.6754 61.3002 65.9741C61.8975 66.2728 62.1962 66.7208 62.1962 67.3181C62.1962 67.7874 62.0469 68.4701 61.7482 69.3661L54.1962 93.3661H54.0042L46.3242 69.3661C46.1109 68.7261 46.0042 68.1928 46.0042 67.7661C46.0042 67.0408 46.3455 66.4861 47.0282 66.1021C47.7109 65.7181 48.8629 65.5048 50.4842 65.4621V62.6461L48.1162 62.8381C44.8735 63.0088 42.9749 63.0941 42.4202 63.0941C41.8229 63.0941 39.9029 63.0088 36.6602 62.8381L34.2922 62.6461V65.4621C35.1029 65.4621 35.8495 65.7181 36.5322 66.2301C37.2575 66.7421 37.7269 67.2968 37.9402 67.8941L49.1402 102.774H55.1562L66.3562 67.8941C66.5695 67.2968 67.0175 66.7421 67.7002 66.2301ZM102.25 103.222L104.618 90.8701H101.738C101.013 93.6434 99.7542 95.8194 97.9622 97.3981C96.1702 98.9341 93.6315 99.7021 90.3462 99.7021H86.4422V84.6621H87.6582C89.4929 84.6621 90.9009 85.0461 91.8822 85.8141C92.9062 86.5394 93.4609 87.9048 93.5462 89.9101H96.2982C96.0422 86.9661 95.9142 84.6194 95.9142 82.8701C95.9142 81.0781 96.0422 78.7528 96.2982 75.8941H93.5462C93.4609 78.0701 92.9062 79.5634 91.8822 80.3741C90.9009 81.1848 89.4929 81.5901 87.6582 81.5901H86.4422V65.8461H90.0262C92.2022 65.8461 93.9302 66.1874 95.2102 66.8701C96.4902 67.5101 97.4289 68.3848 98.0262 69.4941C98.6662 70.6034 99.2209 72.0541 99.6902 73.8461H102.698L101.994 62.3901C97.8982 62.6461 93.9089 62.7741 90.0262 62.7741H83.3062C79.8075 62.7741 76.6929 62.7314 73.9622 62.6461V65.4621C75.4129 65.5048 76.4795 65.7181 77.1622 66.1021C77.8875 66.4861 78.3569 67.0834 78.5702 67.8941C78.8262 68.6621 78.9542 69.8141 78.9542 71.3501V94.3261C78.9542 95.8621 78.8262 97.0354 78.5702 97.8461C78.3569 98.6141 77.8875 99.1901 77.1622 99.5741C76.4795 99.9581 75.4129 100.171 73.9622 100.214V102.966C76.6929 102.838 79.8075 102.774 83.3062 102.774H90.0262C94.3355 102.774 98.4102 102.923 102.25 103.222Z" fill="white"/>
</svg>
